<?xml version="1.0" encoding="UTF-8"?>
<svg version="1.1" xmlns="http://www.w3.org/2000/svg" width="1080" height="1080">
<path d="M0 0 C356.4 0 712.8 0 1080 0 C1080 356.4 1080 712.8 1080 1080 C723.6 1080 367.2 1080 0 1080 C0 723.6 0 367.2 0 0 Z " fill="#FEFEFE" transform="translate(0,0)"/>
<path d="M0 0 C67.32 0 134.64 0 204 0 C204 3.96 204 7.92 204 12 C202.05673828 12.03867188 202.05673828 12.03867188 200.07421875 12.078125 C183.34292494 12.55217568 163.1036039 13.23369146 149.859375 24.8828125 C148.04011112 26.8320238 146.50315581 28.8001568 145 31 C144.60296875 31.55816406 144.2059375 32.11632812 143.796875 32.69140625 C137.04959034 43.94527283 137.56139945 59.89934437 137.65942383 72.61743164 C137.6602731 74.19627364 137.65978913 75.77511681 137.65809631 77.35395813 C137.65724663 81.58019715 137.67470289 85.80617308 137.69581819 90.03235173 C137.71475919 94.47121498 137.71634899 98.91008634 137.71989441 103.34898376 C137.72916428 111.72789273 137.75370845 120.1066822 137.78394288 128.4855389 C137.81764579 138.03591587 137.83401257 147.586299 137.84902918 157.13672078 C137.8802634 176.75788016 137.93292385 196.37893251 138 216 C139.0986438 214.99332275 139.0986438 214.99332275 140.21948242 213.96630859 C141.19248291 213.07766113 142.1654834 212.18901367 143.16796875 211.2734375 C144.12727295 210.39606934 145.08657715 209.51870117 146.07495117 208.61474609 C149.64033046 205.42759876 153.32910688 202.42014358 157.046875 199.4140625 C164.59333427 193.24513151 171.97705185 186.87057427 179.1875 180.3125 C182.43670399 177.35867819 185.75874685 174.55550252 189.1875 171.8125 C195.25607398 166.90764404 200.88706664 161.57244999 206.5625 156.22265625 C209.6483981 153.31676887 212.80278143 150.50744986 216.01171875 147.73828125 C231.62876398 134.08487235 246.57682937 119.61011068 261.23901367 104.94628906 C263.45537813 102.73213974 265.67968763 100.52617436 267.90429688 98.3203125 C275.39594882 90.85846854 282.55609491 83.40045567 289 75 C289.52150635 74.34306152 290.0430127 73.68612305 290.58032227 73.00927734 C301.17182685 59.60051609 311.87912408 43.76626404 310 26 C308.23183021 21.69489096 306.17761478 19.84258077 302.125 17.8125 C292.51665562 14.01973248 282.23945391 12.69185499 272 12 C272 8.04 272 4.08 272 0 C325.79 0 379.58 0 435 0 C435 3.96 435 7.92 435 12 C433.8140625 12.08636719 432.628125 12.17273438 431.40625 12.26171875 C390.11494411 15.67010807 357.11429374 42.86738143 330.97094727 73.53344727 C326.44501239 78.71964016 321.57060592 83.53553025 316.68359375 88.37890625 C315.69876468 89.35931641 314.71423786 90.34003027 313.72999573 91.32102966 C310.6353323 94.4043761 307.53672556 97.48374011 304.4375 100.5625 C300.83741399 104.13884242 297.23904177 107.71687608 293.64488411 111.29917717 C292.21906374 112.71859552 290.79016531 114.1349198 289.3611908 115.55116272 C285.12406849 119.77234201 281.03191767 124.01516716 277.19935608 128.60704041 C275.7341451 130.30876996 274.14685064 131.74013418 272.40625 133.15625 C268.78013471 136.24465238 265.38710932 139.52967869 262.03125 142.90625 C261.23738892 143.70494507 261.23738892 143.70494507 260.42749023 144.51977539 C258.78309872 146.1779874 257.14111555 147.83854605 255.5 149.5 C242.88647629 162.26984357 242.88647629 162.26984357 236.77929688 167.47460938 C233.76731347 170.05678175 230.89348375 172.78671906 228 175.5 C223.0770908 180.09301341 218.11750382 184.62333749 213 189 C212.32839844 189.5775 211.65679687 190.155 210.96484375 190.75 C209.31220693 192.16936204 207.65646268 193.58510479 206 195 C206.86221156 199.81649607 209.98451318 202.0734566 213.50415039 205.19555664 C214.88737189 206.45438824 216.26823496 207.71581509 217.64700317 208.97952271 C218.36660847 209.6388039 219.08621376 210.2980851 219.82762527 210.97734451 C223.36075641 214.2669736 226.7760366 217.67045379 230.18530273 221.08764648 C230.88528413 221.78869035 231.58526552 222.48973421 232.30645847 223.21202183 C233.76374618 224.67387938 235.22008832 226.1366801 236.6755352 227.60037041 C238.9993842 229.9372532 241.32657981 232.27076018 243.65455627 234.60353088 C248.58507317 239.54533166 253.51158182 244.49111585 258.4375 249.4375 C264.17844621 255.20216856 269.92108928 260.96512667 275.6679554 266.72389412 C277.94766517 269.01002868 280.22431719 271.29917749 282.50083923 273.58848572 C283.90723001 274.99851099 285.31376249 276.40839495 286.72045898 277.81811523 C287.34138428 278.44420685 287.96230957 279.07029846 288.60205078 279.71536255 C292.28193199 283.39567965 296.09344973 286.85216083 300.02969456 290.25553989 C303.21810399 293.07847939 306.20943114 296.08652044 309.20703125 299.109375 C309.87809906 299.78190308 310.54916687 300.45443115 311.24057007 301.14733887 C312.6831823 302.59372784 314.12463929 304.04126981 315.56503296 305.48986816 C317.85059287 307.78830752 320.13936328 310.08350709 322.42895508 312.37792969 C328.11211219 318.074386 333.78979087 323.77629259 339.46765137 329.47802734 C344.2760461 334.30621756 349.08652743 339.13231074 353.89974976 343.95568848 C356.1439828 346.20635799 358.38515923 348.46004031 360.6262207 350.71386719 C362.01498694 352.1062692 363.4038956 353.49852918 364.79296875 354.890625 C365.40618988 355.50901245 366.01941101 356.1273999 366.6512146 356.76452637 C370.353911 360.46766636 374.17820646 363.96986736 378.1554718 367.37689209 C381.25260039 370.10223612 384.11502076 373.05383782 387 376 C391.14686105 380.18509103 395.2784442 384.3194487 399.78515625 388.12109375 C401.61209262 389.67092866 403.40082683 391.24786976 405.18359375 392.84765625 C435.23580641 419.65594372 464.67973343 432.60300152 505 434 C505 437.96 505 441.92 505 446 C429.1 446 353.2 446 275 446 C275 442.04 275 438.08 275 434 C275.85980469 433.97421875 276.71960938 433.9484375 277.60546875 433.921875 C288.31351633 433.40807555 297.77110851 431.59811442 307 426 C307.66 426 308.32 426 309 426 C313.09736383 418.09794118 314.40935639 411.26159719 312.0625 402.5 C306.26254331 391.21030654 295.29174342 382.01086839 286.40234375 373.171875 C284.99910992 371.76983663 283.59624925 370.36742469 282.19374084 368.96466064 C279.27116502 366.04363853 276.34529457 363.12597327 273.41674805 360.2109375 C269.68079664 356.49201357 265.95150039 352.76650229 262.22443295 349.03867722 C259.33438902 346.14890632 256.44173795 343.26175709 253.54821968 340.37546539 C252.17264683 339.00305225 250.79765902 337.63005243 249.42329216 336.25643158 C247.49814538 334.33347508 245.5697282 332.41385804 243.64038086 330.49511719 C243.08483521 329.93911835 242.52928955 329.38311951 241.95690918 328.81027222 C239.07901696 325.95525836 236.13819274 323.22285758 233.06983948 320.57281494 C228.94605209 316.99965506 225.08437269 313.2116856 221.2421875 309.33984375 C220.51259827 308.60879425 219.78300903 307.87774475 219.03131104 307.12454224 C217.46101515 305.55046614 215.8918746 303.97523677 214.3237915 302.3989563 C211.83659413 299.8988955 209.34619908 297.40205928 206.85498047 294.90600586 C200.67097446 288.70869074 194.49244002 282.50592986 188.3137207 276.30334473 C183.08256031 271.05240003 177.84932093 265.80354389 172.61334229 260.55740356 C170.1696812 258.10729902 167.72907152 255.65418307 165.28857422 253.20092773 C163.77846985 251.68718805 162.26822333 250.17359015 160.7578125 248.66015625 C159.75382416 247.64841843 159.75382416 247.64841843 158.72955322 246.61624146 C154.85216296 242.73842337 150.86238588 239.05262492 146.70309448 235.47824097 C144.71565474 233.75319584 142.8413239 231.94218482 141 230.0625 C140.4225 229.47597656 139.845 228.88945312 139.25 228.28515625 C138.63125 227.64900391 138.63125 227.64900391 138 227 C137.96132813 228.15628906 137.96132813 228.15628906 137.921875 229.3359375 C137.86515625 230.33882812 137.8084375 231.34171875 137.75 232.375 C137.70359375 233.37273437 137.6571875 234.37046875 137.609375 235.3984375 C137.40828125 236.25695312 137.2071875 237.11546875 137 238 C135.6787006 238.6902102 134.34307383 239.35318092 133 240 C131.1149143 241.60476576 131.1149143 241.60476576 129.27636719 243.51245117 C128.20440094 244.58948555 128.20440094 244.58948555 127.11077881 245.6882782 C126.34719055 246.46532608 125.58360229 247.24237396 124.796875 248.04296875 C124.00025452 248.8447908 123.20363403 249.64661285 122.38287354 250.47273254 C119.8337925 253.03962418 117.2914714 255.61307558 114.75 258.1875 C112.22200181 260.74324392 109.69252167 263.2974739 107.15997314 265.84870911 C105.58547555 267.4353202 104.01365686 269.02459594 102.44500732 270.61698914 C98.36385447 274.73479177 94.18756969 278.65105631 89.79348755 282.43260193 C87.38210077 284.54000601 85.12631516 286.77816506 82.87890625 289.05859375 C82.00685547 289.93837891 81.13480469 290.81816406 80.23632812 291.72460938 C78.9127832 293.06749023 78.9127832 293.06749023 77.5625 294.4375 C75.77440574 296.25093932 73.98416643 298.06226701 72.19140625 299.87109375 C71.40967041 300.66443115 70.62793457 301.45776855 69.82250977 302.27514648 C68 304 68 304 67 304 C66.99503478 302.10078655 66.99503478 302.10078655 66.98996925 300.16320515 C66.91085579 270.0696465 66.82159977 239.97613642 66.71994839 209.88264625 C66.70743036 206.17412444 66.69499745 202.46560235 66.68261719 198.75708008 C66.68015119 198.01881765 66.6776852 197.28055522 66.67514448 196.51992121 C66.63548152 184.58504141 66.60270567 172.65015222 66.57250018 160.71524516 C66.54132443 148.45790978 66.50268912 136.20061405 66.45720994 123.94332331 C66.42940692 116.38729992 66.40733866 108.83130536 66.39273749 101.27524474 C66.38089331 95.4694415 66.35864234 89.66371311 66.33261681 83.85795784 C66.32358186 81.48490691 66.31786039 79.11184057 66.31578636 76.73877335 C66.79198123 48.78734294 66.79198123 48.78734294 53.4609375 25.19140625 C39.61779407 12.86441662 17.43712543 13.1126965 0 12 C0 8.04 0 4.08 0 0 Z " fill="#EA3962" transform="translate(297,240)"/>
<path d="M0 0 C10.23 0 20.46 0 31 0 C31 10.89 31 21.78 31 33 C20.77 33 10.54 33 0 33 C0 22.11 0 11.22 0 0 Z " fill="#EA3A63" transform="translate(420,587)"/>
<path d="M0 0 C10.23 0 20.46 0 31 0 C31 10.89 31 21.78 31 33 C20.77 33 10.54 33 0 33 C0 22.11 0 11.22 0 0 Z " fill="#EA3962" transform="translate(456,550)"/>
<path d="M0 0 C10.23 0 20.46 0 31 0 C31 10.89 31 21.78 31 33 C20.77 33 10.54 33 0 33 C0 22.11 0 11.22 0 0 Z " fill="#EA3962" transform="translate(420,550)"/>
<path d="M0 0 C10.23 0 20.46 0 31 0 C31 10.56 31 21.12 31 32 C20.77 32 10.54 32 0 32 C0 21.44 0 10.88 0 0 Z " fill="#EA3962" transform="translate(456,588)"/>
</svg>
